# xmcd
# Track frame offsets:
# 150
# 13515
# 21240
# 34307
# 47012
# 58565
# 70927
# 77670
# 90287
# 100412
# 114205
#
# Disc length: 1711 seconds
# Revision: 2
# Processed by: cddbd v1.5.2PL0 Copyright (c) Steve Scherf et al.
# Submitted via: VisiTrax 2.11.2.271 - For more info visit www.synapsa.com
#
DISCID=7f06ad0b
DTITLE=Slim Dusty - The Slim Dusty Show - Live At Townsville 1956, 'Theatre R
DTITLE=oyal'
DYEAR=1996
DGENRE=Australian Country
TTITLE0=The Rutland Rodeo
TTITLE1=Hey Good Lookin'
TTITLE2=The Bushland Boogie
TTITLE3=Honky Tonk Blues
TTITLE4=No Good Baby
TTITLE5=Goin' To The Barn
TTITLE6=A Fool Such As I
TTITLE7=Range Of Glory
TTITLE8=I'll Go Steppin' Too
TTITLE9=Pub With No Beer
TTITLE10=Black Cotton Strand
EXTD=
EXTT0=
EXTT1=
EXTT2=
EXTT3=
EXTT4=
EXTT5=
EXTT6=
EXTT7=
EXTT8=
EXTT9=
EXTT10=
PLAYORDER=
